<svg xmlns="http://www.w3.org/2000/svg" version="1.1" xmlns:xlink="http://www.w3.org/1999/xlink" xmlns:svgjs="http://svgjs.com/svgjs" width="700" height="700" preserveAspectRatio="none" viewBox="0 0 700 700"><g mask="url(&quot;#SvgjsMask1074&quot;)" fill="none"><rect width="700" height="700" x="0" y="0" fill="rgba(255, 255, 255, 1)"></rect><path d="M567.57 344.26L567.57 346.07L573.36 346.07L573.36 344.26zM570.15 345.17 a3.21 3.21 0 1 0 6.42 0 a3.21 3.21 0 1 0 -6.42 0zM565.29 357.57L564.59 359.24L571.38 362.06L572.08 360.38zM568.52 361.22 a3.21 3.21 0 1 0 6.42 0 a3.21 3.21 0 1 0 -6.42 0zM558.08 368.99L556.8 370.27L562.73 376.2L564.01 374.92zM560.16 375.56 a3.21 3.21 0 1 0 6.42 0 a3.21 3.21 0 1 0 -6.42 0zM547.05 376.78L545.38 377.48L548.47 384.94L550.15 384.25zM546.1 384.6 a3.21 3.21 0 1 0 6.42 0 a3.21 3.21 0 1 0 -6.42 0zM533.88 379.76L532.07 379.76L532.07 395.54L533.88 395.54zM529.77 395.54 a3.21 3.21 0 1 0 6.42 0 a3.21 3.21 0 1 0 -6.42 0zM520.58 377.48L518.9 376.78L515.14 385.86L516.82 386.55zM512.77 386.2 a3.21 3.21 0 1 0 6.42 0 a3.21 3.21 0 1 0 -6.42 0zM509.16 370.27L507.87 368.99L500.07 376.8L501.35 378.08zM497.5 377.44 a3.21 3.21 0 1 0 6.42 0 a3.21 3.21 0 1 0 -6.42 0zM501.36 359.24L500.67 357.57L489.56 362.17L490.26 363.84zM486.7 363.01 a3.21 3.21 0 1 0 6.42 0 a3.21 3.21 0 1 0 -6.42 0zM498.38 346.07L498.38 344.26L485.69 344.26L485.69 346.07zM482.48 345.17 a3.21 3.21 0 1 0 6.42 0 a3.21 3.21 0 1 0 -6.42 0zM500.67 332.77L501.36 331.09L489.4 326.14L488.7 327.81zM485.84 326.97 a3.21 3.21 0 1 0 6.42 0 a3.21 3.21 0 1 0 -6.42 0zM507.87 321.35L509.16 320.06L503.51 314.42L502.23 315.7zM499.66 315.06 a3.21 3.21 0 1 0 6.42 0 a3.21 3.21 0 1 0 -6.42 0zM518.9 313.55L520.58 312.86L515.83 301.41L514.16 302.11zM511.79 301.76 a3.21 3.21 0 1 0 6.42 0 a3.21 3.21 0 1 0 -6.42 0zM532.07 310.57L533.88 310.57L533.88 302.78L532.07 302.78zM529.77 302.78 a3.21 3.21 0 1 0 6.42 0 a3.21 3.21 0 1 0 -6.42 0zM545.38 312.86L547.05 313.55L552.86 299.54L551.19 298.84zM548.81 299.19 a3.21 3.21 0 1 0 6.42 0 a3.21 3.21 0 1 0 -6.42 0zM556.8 320.06L558.08 321.35L566.28 313.14L565 311.86zM562.43 312.5 a3.21 3.21 0 1 0 6.42 0 a3.21 3.21 0 1 0 -6.42 0zM564.59 331.09L565.29 332.77L572.58 329.75L571.88 328.07zM569.02 328.91 a3.21 3.21 0 1 0 6.42 0 a3.21 3.21 0 1 0 -6.42 0zM498.37 345.17 a34.61 34.61 0 1 0 69.22 0 a34.61 34.61 0 1 0 -69.22 0z" fill="rgba(34, 149, 118, 0.76)"></path><path d="M537.9 310.91 A33.608 33.608 0 0 1 560.23 366.5M560.23 366.5 A69.216 69.216 0 0 0 537.9 310.91" fill="rgba(27, 119, 94, 0.76)" fill-rule="nonzero"></path><path d="M551.43 321.63 a2.77 2.77 0 1 0 5.54 0 a2.77 2.77 0 1 0 -5.54 0zM525.93 333.87 a6.92 6.92 0 1 0 13.84 0 a6.92 6.92 0 1 0 -13.84 0zM511.99 326.49 a4.15 4.15 0 1 0 8.3 0 a4.15 4.15 0 1 0 -8.3 0zM523.61 377.13 a1.73 1.73 0 1 0 3.46 0 a1.73 1.73 0 1 0 -3.46 0zM508.43 364.23 a6.92 6.92 0 1 0 13.84 0 a6.92 6.92 0 1 0 -13.84 0zM539.35 366.34 a6.92 6.92 0 1 0 13.84 0 a6.92 6.92 0 1 0 -13.84 0zM557.79 336.02 a4.15 4.15 0 1 0 8.3 0 a4.15 4.15 0 1 0 -8.3 0zM533.96 316.47 a4.15 4.15 0 1 0 8.3 0 a4.15 4.15 0 1 0 -8.3 0zM500.58 334.22 a2.08 2.08 0 1 0 4.16 0 a2.08 2.08 0 1 0 -4.16 0zM538.99 347.47 a1.73 1.73 0 1 0 3.46 0 a1.73 1.73 0 1 0 -3.46 0z" fill="rgba(27, 119, 94, 0.76)" fill-rule="nonzero"></path><path d="M684.55 373.18L684.55 374.09L692.77 374.09L692.77 373.18zM691.17 373.63 a1.6 1.6 0 1 0 3.2 0 a1.6 1.6 0 1 0 -3.2 0zM683.4 379.83L683.06 380.67L685.29 381.6L685.64 380.76zM683.87 381.18 a1.6 1.6 0 1 0 3.2 0 a1.6 1.6 0 1 0 -3.2 0zM679.8 385.54L679.16 386.18L684.51 391.54L685.15 390.9zM683.23 391.22 a1.6 1.6 0 1 0 3.2 0 a1.6 1.6 0 1 0 -3.2 0zM674.29 389.44L673.45 389.79L674.31 391.87L675.15 391.52zM673.13 391.69 a1.6 1.6 0 1 0 3.2 0 a1.6 1.6 0 1 0 -3.2 0zM667.7 390.93L666.8 390.93L666.8 399.36L667.7 399.36zM665.65 399.36 a1.6 1.6 0 1 0 3.2 0 a1.6 1.6 0 1 0 -3.2 0zM661.05 389.79L660.21 389.44L658.34 393.96L659.18 394.31zM657.16 394.13 a1.6 1.6 0 1 0 3.2 0 a1.6 1.6 0 1 0 -3.2 0zM655.34 386.18L654.7 385.54L652.91 387.33L653.55 387.97zM651.63 387.65 a1.6 1.6 0 1 0 3.2 0 a1.6 1.6 0 1 0 -3.2 0zM651.44 380.67L651.1 379.83L644.65 382.51L644.99 383.34zM643.22 382.92 a1.6 1.6 0 1 0 3.2 0 a1.6 1.6 0 1 0 -3.2 0zM649.95 374.09L649.95 373.18L643.92 373.18L643.92 374.09zM642.32 373.63 a1.6 1.6 0 1 0 3.2 0 a1.6 1.6 0 1 0 -3.2 0zM651.1 367.43L651.44 366.59L643.72 363.4L643.37 364.23zM641.95 363.81 a1.6 1.6 0 1 0 3.2 0 a1.6 1.6 0 1 0 -3.2 0zM654.7 361.72L655.34 361.08L652.94 358.68L652.3 359.32zM651.02 359 a1.6 1.6 0 1 0 3.2 0 a1.6 1.6 0 1 0 -3.2 0zM660.21 357.82L661.05 357.48L660 354.95L659.16 355.29zM657.98 355.12 a1.6 1.6 0 1 0 3.2 0 a1.6 1.6 0 1 0 -3.2 0zM666.8 356.33L667.7 356.33L667.7 348.3L666.8 348.3zM665.65 348.3 a1.6 1.6 0 1 0 3.2 0 a1.6 1.6 0 1 0 -3.2 0zM673.45 357.48L674.29 357.82L677.52 350.03L676.68 349.68zM675.5 349.85 a1.6 1.6 0 1 0 3.2 0 a1.6 1.6 0 1 0 -3.2 0zM679.16 361.08L679.8 361.72L683.39 358.14L682.75 357.5zM681.47 357.82 a1.6 1.6 0 1 0 3.2 0 a1.6 1.6 0 1 0 -3.2 0zM683.06 366.59L683.4 367.43L688.51 365.32L688.17 364.48zM686.74 364.9 a1.6 1.6 0 1 0 3.2 0 a1.6 1.6 0 1 0 -3.2 0zM649.95 373.63 a17.3 17.3 0 1 0 34.6 0 a17.3 17.3 0 1 0 -34.6 0z" fill="rgba(34, 149, 118, 0.76)"></path><path d="M672.47 390.13 A16.304 16.304 0 0 1 650.34 369.94M650.34 369.94 A34.608 34.608 0 0 0 672.47 390.13" fill="rgba(27, 119, 94, 0.76)" fill-rule="nonzero"></path><path d="M654.99 366.86 a3.46 3.46 0 1 0 6.92 0 a3.46 3.46 0 1 0 -6.92 0zM670.52 361.05 a3.11 3.11 0 1 0 6.22 0 a3.11 3.11 0 1 0 -6.22 0zM667.63 388.75 a1.9 1.9 0 1 0 3.8 0 a1.9 1.9 0 1 0 -3.8 0zM659.64 375.1 a1.73 1.73 0 1 0 3.46 0 a1.73 1.73 0 1 0 -3.46 0zM654.34 378.05 a1.21 1.21 0 1 0 2.42 0 a1.21 1.21 0 1 0 -2.42 0zM683.02 371.94 a0.69 0.69 0 1 0 1.38 0 a0.69 0.69 0 1 0 -1.38 0zM668.11 380.07 a3.46 3.46 0 1 0 6.92 0 a3.46 3.46 0 1 0 -6.92 0zM665.79 365.87 a1.38 1.38 0 1 0 2.76 0 a1.38 1.38 0 1 0 -2.76 0zM660.95 388.87 a1.21 1.21 0 1 0 2.42 0 a1.21 1.21 0 1 0 -2.42 0zM676.32 374.19 a1.56 1.56 0 1 0 3.12 0 a1.56 1.56 0 1 0 -3.12 0z" fill="rgba(27, 119, 94, 0.76)" fill-rule="nonzero"></path><path d="M173.69 511.35L173.69 513.16L180.58 513.16L180.58 511.35zM177.37 512.25 a3.21 3.21 0 1 0 6.42 0 a3.21 3.21 0 1 0 -6.42 0zM171.4 524.66L170.71 526.33L175.62 528.37L176.32 526.69zM172.76 527.53 a3.21 3.21 0 1 0 6.42 0 a3.21 3.21 0 1 0 -6.42 0zM164.2 536.08L162.92 537.36L173.39 547.84L174.68 546.56zM170.83 547.2 a3.21 3.21 0 1 0 6.42 0 a3.21 3.21 0 1 0 -6.42 0zM153.17 543.87L151.49 544.56L153.46 549.31L155.14 548.62zM151.09 548.97 a3.21 3.21 0 1 0 6.42 0 a3.21 3.21 0 1 0 -6.42 0zM140 546.85L138.19 546.85L138.19 561.75L140 561.75zM135.88 561.75 a3.21 3.21 0 1 0 6.42 0 a3.21 3.21 0 1 0 -6.42 0zM126.69 544.56L125.02 543.87L119.18 557.97L120.85 558.66zM116.8 558.31 a3.21 3.21 0 1 0 6.42 0 a3.21 3.21 0 1 0 -6.42 0zM115.27 537.36L113.99 536.08L106.2 543.86L107.48 545.14zM103.63 544.5 a3.21 3.21 0 1 0 6.42 0 a3.21 3.21 0 1 0 -6.42 0zM107.48 526.33L106.78 524.66L94.09 529.91L94.78 531.59zM91.23 530.75 a3.21 3.21 0 1 0 6.42 0 a3.21 3.21 0 1 0 -6.42 0zM104.5 513.16L104.5 511.35L92.17 511.35L92.17 513.16zM88.96 512.25 a3.21 3.21 0 1 0 6.42 0 a3.21 3.21 0 1 0 -6.42 0zM106.78 499.85L107.48 498.18L97.32 493.97L96.63 495.65zM93.77 494.81 a3.21 3.21 0 1 0 6.42 0 a3.21 3.21 0 1 0 -6.42 0zM113.99 488.43L115.27 487.15L103.74 475.62L102.46 476.9zM99.89 476.26 a3.21 3.21 0 1 0 6.42 0 a3.21 3.21 0 1 0 -6.42 0zM125.02 480.64L126.69 479.94L124.47 474.59L122.8 475.28zM120.42 474.93 a3.21 3.21 0 1 0 6.42 0 a3.21 3.21 0 1 0 -6.42 0zM138.19 477.66L140 477.66L140 460.66L138.19 460.66zM135.88 460.66 a3.21 3.21 0 1 0 6.42 0 a3.21 3.21 0 1 0 -6.42 0zM151.49 479.94L153.17 480.64L155.89 474.06L154.22 473.37zM151.85 473.71 a3.21 3.21 0 1 0 6.42 0 a3.21 3.21 0 1 0 -6.42 0zM162.92 487.15L164.2 488.43L172.99 479.63L171.71 478.35zM169.14 478.99 a3.21 3.21 0 1 0 6.42 0 a3.21 3.21 0 1 0 -6.42 0zM170.71 498.18L171.4 499.85L178.88 496.76L178.18 495.08zM175.32 495.92 a3.21 3.21 0 1 0 6.42 0 a3.21 3.21 0 1 0 -6.42 0zM104.48 512.25 a34.61 34.61 0 1 0 69.22 0 a34.61 34.61 0 1 0 -69.22 0z" fill="rgba(34, 149, 118, 0.76)"></path><path d="M169.31 529.12 A33.608 33.608 0 0 1 109.41 530.05M109.41 530.05 A69.216 69.216 0 0 0 169.31 529.12" fill="rgba(27, 119, 94, 0.76)" fill-rule="nonzero"></path><path d="M149.16 520.17 a6.92 6.92 0 1 0 13.84 0 a6.92 6.92 0 1 0 -13.84 0zM118.16 513.66 a6.92 6.92 0 1 0 13.84 0 a6.92 6.92 0 1 0 -13.84 0zM140.16 501.68 a6.58 6.58 0 1 0 13.16 0 a6.58 6.58 0 1 0 -13.16 0zM127.96 541.79 a4.15 4.15 0 1 0 8.3 0 a4.15 4.15 0 1 0 -8.3 0zM140.05 483.18 a4.85 4.85 0 1 0 9.7 0 a4.85 4.85 0 1 0 -9.7 0zM122.48 491.45 a6.23 6.23 0 1 0 12.46 0 a6.23 6.23 0 1 0 -12.46 0zM155.08 536.64 a2.42 2.42 0 1 0 4.84 0 a2.42 2.42 0 1 0 -4.84 0zM114.6 535.79 a1.73 1.73 0 1 0 3.46 0 a1.73 1.73 0 1 0 -3.46 0zM108.31 527.58 a1.38 1.38 0 1 0 2.76 0 a1.38 1.38 0 1 0 -2.76 0zM169.07 508.35 a2.08 2.08 0 1 0 4.16 0 a2.08 2.08 0 1 0 -4.16 0z" fill="rgba(27, 119, 94, 0.76)" fill-rule="nonzero"></path><path d="M225.38 191.25L225.38 193.06L236.7 193.06L236.7 191.25zM233.49 192.16 a3.21 3.21 0 1 0 6.42 0 a3.21 3.21 0 1 0 -6.42 0zM223.1 204.56L222.4 206.24L231.43 209.97L232.12 208.3zM228.57 209.14 a3.21 3.21 0 1 0 6.42 0 a3.21 3.21 0 1 0 -6.42 0zM215.89 215.98L214.61 217.26L224.42 227.07L225.7 225.79zM221.85 226.43 a3.21 3.21 0 1 0 6.42 0 a3.21 3.21 0 1 0 -6.42 0zM204.86 223.77L203.19 224.47L209.61 239.96L211.28 239.27zM207.23 239.61 a3.21 3.21 0 1 0 6.42 0 a3.21 3.21 0 1 0 -6.42 0zM191.69 226.75L189.88 226.75L189.88 243.4L191.69 243.4zM187.58 243.4 a3.21 3.21 0 1 0 6.42 0 a3.21 3.21 0 1 0 -6.42 0zM178.39 224.47L176.71 223.77L171.92 235.35L173.59 236.04zM169.54 235.7 a3.21 3.21 0 1 0 6.42 0 a3.21 3.21 0 1 0 -6.42 0zM166.97 217.26L165.68 215.98L156.39 225.27L157.67 226.55zM153.82 225.91 a3.21 3.21 0 1 0 6.42 0 a3.21 3.21 0 1 0 -6.42 0zM159.17 206.24L158.48 204.56L147 209.31L147.7 210.99zM144.14 210.15 a3.21 3.21 0 1 0 6.42 0 a3.21 3.21 0 1 0 -6.42 0zM156.19 193.06L156.19 191.25L146.03 191.25L146.03 193.06zM142.82 192.16 a3.21 3.21 0 1 0 6.42 0 a3.21 3.21 0 1 0 -6.42 0zM158.48 179.76L159.17 178.08L144.93 172.19L144.24 173.86zM141.38 173.02 a3.21 3.21 0 1 0 6.42 0 a3.21 3.21 0 1 0 -6.42 0zM165.68 168.34L166.97 167.06L162.16 162.25L160.88 163.53zM158.31 162.89 a3.21 3.21 0 1 0 6.42 0 a3.21 3.21 0 1 0 -6.42 0zM176.71 160.54L178.39 159.85L172.8 146.37L171.13 147.06zM168.76 146.72 a3.21 3.21 0 1 0 6.42 0 a3.21 3.21 0 1 0 -6.42 0zM189.88 157.56L191.69 157.56L191.69 152.68L189.88 152.68zM187.58 152.68 a3.21 3.21 0 1 0 6.42 0 a3.21 3.21 0 1 0 -6.42 0zM203.19 159.85L204.86 160.54L209.99 148.16L208.32 147.47zM205.95 147.82 a3.21 3.21 0 1 0 6.42 0 a3.21 3.21 0 1 0 -6.42 0zM214.61 167.06L215.89 168.34L224.23 160L222.95 158.72zM220.38 159.36 a3.21 3.21 0 1 0 6.42 0 a3.21 3.21 0 1 0 -6.42 0zM222.4 178.08L223.1 179.76L233.37 175.5L232.68 173.83zM229.81 174.66 a3.21 3.21 0 1 0 6.42 0 a3.21 3.21 0 1 0 -6.42 0zM156.18 192.16 a34.61 34.61 0 1 0 69.22 0 a34.61 34.61 0 1 0 -69.22 0z" fill="rgba(34, 149, 118, 0.76)"></path><path d="M156.25 194.37 A33.608 33.608 0 0 1 206.08 161.11M206.08 161.11 A69.216 69.216 0 0 0 156.25 194.37" fill="rgba(27, 119, 94, 0.76)" fill-rule="nonzero"></path><path d="M198.07 203.07 a6.92 6.92 0 1 0 13.84 0 a6.92 6.92 0 1 0 -13.84 0zM179.91 174.58 a6.92 6.92 0 1 0 13.84 0 a6.92 6.92 0 1 0 -13.84 0zM168.67 214.87 a6.92 6.92 0 1 0 13.84 0 a6.92 6.92 0 1 0 -13.84 0zM221.19 190.93 a2.08 2.08 0 1 0 4.16 0 a2.08 2.08 0 1 0 -4.16 0zM194.2 223.75 a2.42 2.42 0 1 0 4.84 0 a2.42 2.42 0 1 0 -4.84 0zM159.76 191.91 a6.92 6.92 0 1 0 13.84 0 a6.92 6.92 0 1 0 -13.84 0zM220.21 202.04 a1.73 1.73 0 1 0 3.46 0 a1.73 1.73 0 1 0 -3.46 0zM213.22 179.63 a3.81 3.81 0 1 0 7.62 0 a3.81 3.81 0 1 0 -7.62 0zM180.35 194.65 a5.19 5.19 0 1 0 10.38 0 a5.19 5.19 0 1 0 -10.38 0zM189.36 213.23 a2.08 2.08 0 1 0 4.16 0 a2.08 2.08 0 1 0 -4.16 0z" fill="rgba(27, 119, 94, 0.76)" fill-rule="nonzero"></path><path d="M46.66 199.95L46.66 200.86L51.94 200.86L51.94 199.95zM50.34 200.41 a1.6 1.6 0 1 0 3.2 0 a1.6 1.6 0 1 0 -3.2 0zM45.51 206.61L45.16 207.45L51.8 210.19L52.15 209.36zM50.37 209.77 a1.6 1.6 0 1 0 3.2 0 a1.6 1.6 0 1 0 -3.2 0zM41.91 212.32L41.27 212.96L46.56 218.26L47.21 217.61zM45.28 217.94 a1.6 1.6 0 1 0 3.2 0 a1.6 1.6 0 1 0 -3.2 0zM36.4 216.22L35.56 216.56L36.76 219.47L37.6 219.13zM35.58 219.3 a1.6 1.6 0 1 0 3.2 0 a1.6 1.6 0 1 0 -3.2 0zM29.81 217.71L28.9 217.71L28.9 221.08L29.81 221.08zM27.76 221.08 a1.6 1.6 0 1 0 3.2 0 a1.6 1.6 0 1 0 -3.2 0zM23.16 216.56L22.32 216.22L21.47 218.27L22.31 218.61zM20.29 218.44 a1.6 1.6 0 1 0 3.2 0 a1.6 1.6 0 1 0 -3.2 0zM17.45 212.96L16.81 212.32L13.41 215.71L14.05 216.35zM12.13 216.03 a1.6 1.6 0 1 0 3.2 0 a1.6 1.6 0 1 0 -3.2 0zM13.55 207.45L13.2 206.61L6.38 209.43L6.73 210.27zM4.96 209.85 a1.6 1.6 0 1 0 3.2 0 a1.6 1.6 0 1 0 -3.2 0zM12.06 200.86L12.06 199.95L6.93 199.95L6.93 200.86zM5.33 200.41 a1.6 1.6 0 1 0 3.2 0 a1.6 1.6 0 1 0 -3.2 0zM13.2 194.21L13.55 193.37L9.79 191.81L9.44 192.65zM8.02 192.23 a1.6 1.6 0 1 0 3.2 0 a1.6 1.6 0 1 0 -3.2 0zM16.81 188.5L17.45 187.86L11.45 181.86L10.81 182.5zM9.53 182.18 a1.6 1.6 0 1 0 3.2 0 a1.6 1.6 0 1 0 -3.2 0zM22.32 184.6L23.16 184.25L20.6 178.07L19.76 178.42zM18.58 178.25 a1.6 1.6 0 1 0 3.2 0 a1.6 1.6 0 1 0 -3.2 0zM28.9 183.11L29.81 183.11L29.81 178.86L28.9 178.86zM27.76 178.86 a1.6 1.6 0 1 0 3.2 0 a1.6 1.6 0 1 0 -3.2 0zM35.56 184.25L36.4 184.6L38.66 179.14L37.82 178.79zM36.64 178.97 a1.6 1.6 0 1 0 3.2 0 a1.6 1.6 0 1 0 -3.2 0zM41.27 187.86L41.91 188.5L45.11 185.3L44.46 184.66zM43.18 184.98 a1.6 1.6 0 1 0 3.2 0 a1.6 1.6 0 1 0 -3.2 0zM45.16 193.37L45.51 194.21L49.93 192.38L49.58 191.54zM48.15 191.96 a1.6 1.6 0 1 0 3.2 0 a1.6 1.6 0 1 0 -3.2 0zM12.06 200.41 a17.3 17.3 0 1 0 34.6 0 a17.3 17.3 0 1 0 -34.6 0z" fill="rgba(34, 149, 118, 0.76)"></path><path d="M15.45 210.7 A16.304 16.304 0 0 1 27.36 183.22M27.36 183.22 A34.608 34.608 0 0 0 15.45 210.7" fill="rgba(27, 119, 94, 0.76)" fill-rule="nonzero"></path><path d="M32.12 197.17 a3.46 3.46 0 1 0 6.92 0 a3.46 3.46 0 1 0 -6.92 0zM39.14 206.78 a2.94 2.94 0 1 0 5.88 0 a2.94 2.94 0 1 0 -5.88 0zM20.13 199.75 a3.46 3.46 0 1 0 6.92 0 a3.46 3.46 0 1 0 -6.92 0zM34.34 189.52 a0.69 0.69 0 1 0 1.38 0 a0.69 0.69 0 1 0 -1.38 0zM25.21 208.45 a2.77 2.77 0 1 0 5.54 0 a2.77 2.77 0 1 0 -5.54 0zM12.65 204.61 a1.9 1.9 0 1 0 3.8 0 a1.9 1.9 0 1 0 -3.8 0zM27.67 184.51 a1.38 1.38 0 1 0 2.76 0 a1.38 1.38 0 1 0 -2.76 0zM39.86 188.25 a0.69 0.69 0 1 0 1.38 0 a0.69 0.69 0 1 0 -1.38 0zM22.35 188.54 a1.56 1.56 0 1 0 3.12 0 a1.56 1.56 0 1 0 -3.12 0zM18.89 213.18 a1.73 1.73 0 1 0 3.46 0 a1.73 1.73 0 1 0 -3.46 0z" fill="rgba(27, 119, 94, 0.76)" fill-rule="nonzero"></path><path d="M335.46 641.82L335.46 643.63L341.67 643.63L341.67 641.82zM338.46 642.72 a3.21 3.21 0 1 0 6.42 0 a3.21 3.21 0 1 0 -6.42 0zM333.17 655.13L332.48 656.8L346.08 662.43L346.77 660.76zM343.22 661.6 a3.21 3.21 0 1 0 6.42 0 a3.21 3.21 0 1 0 -6.42 0zM325.97 666.55L324.69 667.83L331.47 674.62L332.76 673.34zM328.91 673.98 a3.21 3.21 0 1 0 6.42 0 a3.21 3.21 0 1 0 -6.42 0zM314.94 674.34L313.27 675.03L319.69 690.54L321.36 689.84zM317.31 690.19 a3.21 3.21 0 1 0 6.42 0 a3.21 3.21 0 1 0 -6.42 0zM301.77 677.32L299.96 677.32L299.96 682.67L301.77 682.67zM297.65 682.67 a3.21 3.21 0 1 0 6.42 0 a3.21 3.21 0 1 0 -6.42 0zM288.46 675.03L286.79 674.34L283.61 682.02L285.28 682.71zM281.23 682.36 a3.21 3.21 0 1 0 6.42 0 a3.21 3.21 0 1 0 -6.42 0zM277.04 667.83L275.76 666.55L269.45 672.85L270.73 674.14zM266.88 673.49 a3.21 3.21 0 1 0 6.42 0 a3.21 3.21 0 1 0 -6.42 0zM269.25 656.8L268.55 655.13L263.82 657.09L264.51 658.76zM260.95 657.93 a3.21 3.21 0 1 0 6.42 0 a3.21 3.21 0 1 0 -6.42 0zM266.27 643.63L266.27 641.82L254.39 641.82L254.39 643.63zM251.18 642.72 a3.21 3.21 0 1 0 6.42 0 a3.21 3.21 0 1 0 -6.42 0zM268.55 630.32L269.25 628.65L255.11 622.79L254.42 624.47zM251.56 623.63 a3.21 3.21 0 1 0 6.42 0 a3.21 3.21 0 1 0 -6.42 0zM275.76 618.9L277.04 617.62L272.44 613.02L271.16 614.3zM268.59 613.66 a3.21 3.21 0 1 0 6.42 0 a3.21 3.21 0 1 0 -6.42 0zM286.79 611.11L288.46 610.41L284.29 600.34L282.61 601.03zM280.24 600.68 a3.21 3.21 0 1 0 6.42 0 a3.21 3.21 0 1 0 -6.42 0zM299.96 608.13L301.77 608.13L301.77 601.73L299.96 601.73zM297.65 601.73 a3.21 3.21 0 1 0 6.42 0 a3.21 3.21 0 1 0 -6.42 0zM313.27 610.41L314.94 611.11L321.04 596.38L319.37 595.69zM316.99 596.03 a3.21 3.21 0 1 0 6.42 0 a3.21 3.21 0 1 0 -6.42 0zM324.69 617.62L325.97 618.9L334.09 610.78L332.8 609.5zM330.23 610.14 a3.21 3.21 0 1 0 6.42 0 a3.21 3.21 0 1 0 -6.42 0zM332.48 628.65L333.17 630.32L340.64 627.23L339.94 625.56zM337.08 626.39 a3.21 3.21 0 1 0 6.42 0 a3.21 3.21 0 1 0 -6.42 0zM266.25 642.72 a34.61 34.61 0 1 0 69.22 0 a34.61 34.61 0 1 0 -69.22 0z" fill="rgba(34, 149, 118, 0.76)"></path><path d="M268.59 655.21 A33.608 33.608 0 0 1 306.12 608.52M306.12 608.52 A69.216 69.216 0 0 0 268.59 655.21" fill="rgba(27, 119, 94, 0.76)" fill-rule="nonzero"></path><path d="M310.71 644.28 a6.92 6.92 0 1 0 13.84 0 a6.92 6.92 0 1 0 -13.84 0zM290.85 673.59 a2.77 2.77 0 1 0 5.54 0 a2.77 2.77 0 1 0 -5.54 0zM313.19 664.05 a5.88 5.88 0 1 0 11.76 0 a5.88 5.88 0 1 0 -11.76 0zM306.96 675.02 a1.38 1.38 0 1 0 2.76 0 a1.38 1.38 0 1 0 -2.76 0zM326.98 624.54 a1.38 1.38 0 1 0 2.76 0 a1.38 1.38 0 1 0 -2.76 0zM277.69 666.87 a2.77 2.77 0 1 0 5.54 0 a2.77 2.77 0 1 0 -5.54 0zM283.37 622.36 a6.92 6.92 0 1 0 13.84 0 a6.92 6.92 0 1 0 -13.84 0zM269.1 652.16 a5.88 5.88 0 1 0 11.76 0 a5.88 5.88 0 1 0 -11.76 0zM292.29 662.15 a1.73 1.73 0 1 0 3.46 0 a1.73 1.73 0 1 0 -3.46 0zM287.96 650.04 a1.73 1.73 0 1 0 3.46 0 a1.73 1.73 0 1 0 -3.46 0z" fill="rgba(27, 119, 94, 0.76)" fill-rule="nonzero"></path><path d="M677.43 216.75L677.43 218.11L681.03 218.11L681.03 216.75zM678.62 217.43 a2.41 2.41 0 1 0 4.82 0 a2.41 2.41 0 1 0 -4.82 0zM675.71 226.73L675.19 227.99L686.13 232.52L686.65 231.26zM683.98 231.89 a2.41 2.41 0 1 0 4.82 0 a2.41 2.41 0 1 0 -4.82 0zM670.31 235.3L669.35 236.26L676.43 243.33L677.39 242.37zM674.5 242.85 a2.41 2.41 0 1 0 4.82 0 a2.41 2.41 0 1 0 -4.82 0zM662.04 241.14L660.78 241.66L664.61 250.9L665.87 250.38zM662.83 250.64 a2.41 2.41 0 1 0 4.82 0 a2.41 2.41 0 1 0 -4.82 0zM652.16 243.38L650.8 243.38L650.8 247.31L652.16 247.31zM649.07 247.31 a2.41 2.41 0 1 0 4.82 0 a2.41 2.41 0 1 0 -4.82 0zM642.18 241.66L640.92 241.14L637.16 250.22L638.42 250.74zM635.38 250.48 a2.41 2.41 0 1 0 4.82 0 a2.41 2.41 0 1 0 -4.82 0zM633.61 236.26L632.65 235.3L628.1 239.85L629.06 240.81zM626.17 240.33 a2.41 2.41 0 1 0 4.82 0 a2.41 2.41 0 1 0 -4.82 0zM627.77 227.99L627.25 226.73L620.04 229.72L620.56 230.97zM617.89 230.34 a2.41 2.41 0 1 0 4.82 0 a2.41 2.41 0 1 0 -4.82 0zM625.53 218.11L625.53 216.75L615.47 216.75L615.47 218.11zM613.06 217.43 a2.41 2.41 0 1 0 4.82 0 a2.41 2.41 0 1 0 -4.82 0zM627.25 208.13L627.77 206.87L621.64 204.33L621.12 205.59zM618.97 204.96 a2.41 2.41 0 1 0 4.82 0 a2.41 2.41 0 1 0 -4.82 0zM632.65 199.56L633.61 198.6L630.74 195.73L629.78 196.69zM627.85 196.21 a2.41 2.41 0 1 0 4.82 0 a2.41 2.41 0 1 0 -4.82 0zM640.92 193.72L642.18 193.2L638.65 184.69L637.4 185.21zM635.62 184.95 a2.41 2.41 0 1 0 4.82 0 a2.41 2.41 0 1 0 -4.82 0zM650.8 191.48L652.16 191.48L652.16 182.83L650.8 182.83zM649.07 182.83 a2.41 2.41 0 1 0 4.82 0 a2.41 2.41 0 1 0 -4.82 0zM660.78 193.2L662.04 193.72L665.71 184.85L664.46 184.33zM662.67 184.59 a2.41 2.41 0 1 0 4.82 0 a2.41 2.41 0 1 0 -4.82 0zM669.35 198.6L670.31 199.56L679.19 190.68L678.23 189.72zM676.3 190.2 a2.41 2.41 0 1 0 4.82 0 a2.41 2.41 0 1 0 -4.82 0zM675.19 206.87L675.71 208.13L684.44 204.51L683.92 203.25zM681.77 203.88 a2.41 2.41 0 1 0 4.82 0 a2.41 2.41 0 1 0 -4.82 0zM625.52 217.43 a25.96 25.96 0 1 0 51.92 0 a25.96 25.96 0 1 0 -51.92 0z" fill="rgba(34, 149, 118, 0.76)"></path><path d="M666.62 238.51 A24.956 24.956 0 0 1 625.66 220.06M625.66 220.06 A51.912 51.912 0 0 0 666.62 238.51" fill="rgba(27, 119, 94, 0.76)" fill-rule="nonzero"></path><path d="M650.95 224.74 a5.19 5.19 0 1 0 10.38 0 a5.19 5.19 0 1 0 -10.38 0zM643.59 239.78 a2.86 2.86 0 1 0 5.72 0 a2.86 2.86 0 1 0 -5.72 0zM636.48 198.61 a3.89 3.89 0 1 0 7.78 0 a3.89 3.89 0 1 0 -7.78 0zM669.72 211.38 a3.37 3.37 0 1 0 6.74 0 a3.37 3.37 0 1 0 -6.74 0zM638.96 223.96 a3.37 3.37 0 1 0 6.74 0 a3.37 3.37 0 1 0 -6.74 0zM654.38 236.58 a1.3 1.3 0 1 0 2.6 0 a1.3 1.3 0 1 0 -2.6 0zM643.88 211.24 a4.93 4.93 0 1 0 9.86 0 a4.93 4.93 0 1 0 -9.86 0zM627.67 208.28 a3.89 3.89 0 1 0 7.78 0 a3.89 3.89 0 1 0 -7.78 0zM658.94 210.6 a2.34 2.34 0 1 0 4.68 0 a2.34 2.34 0 1 0 -4.68 0zM652.99 201.23 a1.04 1.04 0 1 0 2.08 0 a1.04 1.04 0 1 0 -2.08 0z" fill="rgba(27, 119, 94, 0.76)" fill-rule="nonzero"></path><path d="M417.88 55.61L417.88 57.42L426.39 57.42L426.39 55.61zM423.18 56.51 a3.21 3.21 0 1 0 6.42 0 a3.21 3.21 0 1 0 -6.42 0zM415.59 68.92L414.9 70.59L423.62 74.2L424.32 72.53zM420.76 73.37 a3.21 3.21 0 1 0 6.42 0 a3.21 3.21 0 1 0 -6.42 0zM408.39 80.34L407.11 81.62L417.59 92.1L418.87 90.82zM415.02 91.46 a3.21 3.21 0 1 0 6.42 0 a3.21 3.21 0 1 0 -6.42 0zM397.36 88.13L395.69 88.82L401.5 102.87L403.18 102.17zM399.13 102.52 a3.21 3.21 0 1 0 6.42 0 a3.21 3.21 0 1 0 -6.42 0zM384.19 91.11L382.38 91.11L382.38 97.13L384.19 97.13zM380.07 97.13 a3.21 3.21 0 1 0 6.42 0 a3.21 3.21 0 1 0 -6.42 0zM370.88 88.82L369.21 88.13L363.64 101.56L365.32 102.26zM361.27 101.91 a3.21 3.21 0 1 0 6.42 0 a3.21 3.21 0 1 0 -6.42 0zM359.46 81.62L358.18 80.34L346.79 91.73L348.07 93.01zM344.22 92.37 a3.21 3.21 0 1 0 6.42 0 a3.21 3.21 0 1 0 -6.42 0zM351.67 70.59L350.98 68.92L336.68 74.84L337.38 76.51zM333.82 75.67 a3.21 3.21 0 1 0 6.42 0 a3.21 3.21 0 1 0 -6.42 0zM348.69 57.42L348.69 55.61L335.66 55.61L335.66 57.42zM332.45 56.51 a3.21 3.21 0 1 0 6.42 0 a3.21 3.21 0 1 0 -6.42 0zM350.98 44.11L351.67 42.44L336.37 36.1L335.68 37.77zM332.81 36.94 a3.21 3.21 0 1 0 6.42 0 a3.21 3.21 0 1 0 -6.42 0zM358.18 32.69L359.46 31.41L349.36 21.31L348.08 22.59zM345.51 21.95 a3.21 3.21 0 1 0 6.42 0 a3.21 3.21 0 1 0 -6.42 0zM369.21 24.9L370.88 24.21L364.95 9.88L363.27 10.57zM360.9 10.22 a3.21 3.21 0 1 0 6.42 0 a3.21 3.21 0 1 0 -6.42 0zM382.38 21.92L384.19 21.92L384.19 12.01L382.38 12.01zM380.07 12.01 a3.21 3.21 0 1 0 6.42 0 a3.21 3.21 0 1 0 -6.42 0zM395.69 24.21L397.36 24.9L399.1 20.7L397.42 20.01zM395.05 20.36 a3.21 3.21 0 1 0 6.42 0 a3.21 3.21 0 1 0 -6.42 0zM407.11 31.41L408.39 32.69L418.13 22.95L416.85 21.67zM414.28 22.31 a3.21 3.21 0 1 0 6.42 0 a3.21 3.21 0 1 0 -6.42 0zM414.9 42.44L415.59 44.11L431.34 37.59L430.64 35.92zM427.78 36.75 a3.21 3.21 0 1 0 6.42 0 a3.21 3.21 0 1 0 -6.42 0zM348.67 56.51 a34.61 34.61 0 1 0 69.22 0 a34.61 34.61 0 1 0 -69.22 0z" fill="rgba(34, 149, 118, 0.76)"></path><path d="M373.66 23.27 A33.608 33.608 0 0 1 416.9 64.73M416.9 64.73 A69.216 69.216 0 0 0 373.66 23.27" fill="rgba(27, 119, 94, 0.76)" fill-rule="nonzero"></path><path d="M383.23 33.25 a6.92 6.92 0 1 0 13.84 0 a6.92 6.92 0 1 0 -13.84 0zM367.42 65.16 a6.92 6.92 0 1 0 13.84 0 a6.92 6.92 0 1 0 -13.84 0zM398.82 66.27 a6.92 6.92 0 1 0 13.84 0 a6.92 6.92 0 1 0 -13.84 0zM349.86 64.75 a2.42 2.42 0 1 0 4.84 0 a2.42 2.42 0 1 0 -4.84 0zM361.34 42.99 a6.92 6.92 0 1 0 13.84 0 a6.92 6.92 0 1 0 -13.84 0zM361.9 82.13 a2.42 2.42 0 1 0 4.84 0 a2.42 2.42 0 1 0 -4.84 0zM400.93 46.78 a5.54 5.54 0 1 0 11.08 0 a5.54 5.54 0 1 0 -11.08 0zM375.56 25.62 a1.38 1.38 0 1 0 2.76 0 a1.38 1.38 0 1 0 -2.76 0zM377.25 84.59 a6.23 6.23 0 1 0 12.46 0 a6.23 6.23 0 1 0 -12.46 0zM384.24 48.95 a2.08 2.08 0 1 0 4.16 0 a2.08 2.08 0 1 0 -4.16 0z" fill="rgba(27, 119, 94, 0.76)" fill-rule="nonzero"></path><path d="M518.52 505.31L518.52 507.12L534.75 507.12L534.75 505.31zM531.54 506.21 a3.21 3.21 0 1 0 6.42 0 a3.21 3.21 0 1 0 -6.42 0zM516.24 518.62L515.54 520.29L521.32 522.68L522.01 521.01zM518.45 521.84 a3.21 3.21 0 1 0 6.42 0 a3.21 3.21 0 1 0 -6.42 0zM509.03 530.04L507.75 531.32L519.05 542.62L520.33 541.33zM516.48 541.98 a3.21 3.21 0 1 0 6.42 0 a3.21 3.21 0 1 0 -6.42 0zM498 537.83L496.33 538.52L498.16 542.95L499.84 542.25zM495.79 542.6 a3.21 3.21 0 1 0 6.42 0 a3.21 3.21 0 1 0 -6.42 0zM484.83 540.81L483.02 540.81L483.02 546.59L484.83 546.59zM480.72 546.59 a3.21 3.21 0 1 0 6.42 0 a3.21 3.21 0 1 0 -6.42 0zM471.52 538.52L469.85 537.83L464.06 551.8L465.74 552.49zM461.69 552.14 a3.21 3.21 0 1 0 6.42 0 a3.21 3.21 0 1 0 -6.42 0zM460.1 531.32L458.82 530.04L453.03 535.83L454.31 537.11zM450.46 536.47 a3.21 3.21 0 1 0 6.42 0 a3.21 3.21 0 1 0 -6.42 0zM452.31 520.29L451.62 518.62L436.72 524.78L437.42 526.46zM433.86 525.62 a3.21 3.21 0 1 0 6.42 0 a3.21 3.21 0 1 0 -6.42 0zM449.33 507.12L449.33 505.31L440.19 505.31L440.19 507.12zM436.98 506.21 a3.21 3.21 0 1 0 6.42 0 a3.21 3.21 0 1 0 -6.42 0zM451.62 493.81L452.31 492.14L445.58 489.35L444.89 491.02zM442.03 490.19 a3.21 3.21 0 1 0 6.42 0 a3.21 3.21 0 1 0 -6.42 0zM458.82 482.39L460.1 481.11L449.78 470.79L448.5 472.07zM445.93 471.43 a3.21 3.21 0 1 0 6.42 0 a3.21 3.21 0 1 0 -6.42 0zM469.85 474.6L471.52 473.9L468.7 467.09L467.03 467.78zM464.65 467.43 a3.21 3.21 0 1 0 6.42 0 a3.21 3.21 0 1 0 -6.42 0zM483.02 471.62L484.83 471.62L484.83 466.19L483.02 466.19zM480.72 466.19 a3.21 3.21 0 1 0 6.42 0 a3.21 3.21 0 1 0 -6.42 0zM496.33 473.9L498 474.6L501.88 465.25L500.2 464.55zM497.83 464.9 a3.21 3.21 0 1 0 6.42 0 a3.21 3.21 0 1 0 -6.42 0zM507.75 481.11L509.03 482.39L516.49 474.93L515.21 473.65zM512.64 474.29 a3.21 3.21 0 1 0 6.42 0 a3.21 3.21 0 1 0 -6.42 0zM515.54 492.14L516.24 493.81L527.38 489.2L526.68 487.52zM523.82 488.36 a3.21 3.21 0 1 0 6.42 0 a3.21 3.21 0 1 0 -6.42 0zM449.32 506.21 a34.61 34.61 0 1 0 69.22 0 a34.61 34.61 0 1 0 -69.22 0z" fill="rgba(34, 149, 118, 0.76)"></path><path d="M455.25 486.84 A33.608 33.608 0 0 1 515.01 491M515.01 491 A69.216 69.216 0 0 0 455.25 486.84" fill="rgba(27, 119, 94, 0.76)" fill-rule="nonzero"></path><path d="M486.74 530.75 a6.92 6.92 0 1 0 13.84 0 a6.92 6.92 0 1 0 -13.84 0zM462.65 512.66 a6.92 6.92 0 1 0 13.84 0 a6.92 6.92 0 1 0 -13.84 0zM505.08 509.87 a6.58 6.58 0 1 0 13.16 0 a6.58 6.58 0 1 0 -13.16 0zM472.07 494.98 a5.19 5.19 0 1 0 10.38 0 a5.19 5.19 0 1 0 -10.38 0zM491.57 476.97 a3.11 3.11 0 1 0 6.22 0 a3.11 3.11 0 1 0 -6.22 0zM490.65 502.23 a4.5 4.5 0 1 0 9 0 a4.5 4.5 0 1 0 -9 0zM450.02 500.05 a1.73 1.73 0 1 0 3.46 0 a1.73 1.73 0 1 0 -3.46 0zM452.19 510.24 a1.73 1.73 0 1 0 3.46 0 a1.73 1.73 0 1 0 -3.46 0zM453.53 521.81 a1.73 1.73 0 1 0 3.46 0 a1.73 1.73 0 1 0 -3.46 0zM467.05 530.48 a3.81 3.81 0 1 0 7.62 0 a3.81 3.81 0 1 0 -7.62 0z" fill="rgba(27, 119, 94, 0.76)" fill-rule="nonzero"></path><path d="M62.61 356.32L62.61 357.45L72.15 357.45L72.15 356.32zM70.14 356.89 a2.01 2.01 0 1 0 4.02 0 a2.01 2.01 0 1 0 -4.02 0zM61.18 364.64L60.74 365.69L63.37 366.77L63.8 365.73zM61.58 366.25 a2.01 2.01 0 1 0 4.02 0 a2.01 2.01 0 1 0 -4.02 0zM56.67 371.78L55.87 372.58L59.41 376.11L60.21 375.31zM57.8 375.71 a2.01 2.01 0 1 0 4.02 0 a2.01 2.01 0 1 0 -4.02 0zM49.78 376.65L48.74 377.08L51.8 384.47L52.84 384.04zM50.31 384.26 a2.01 2.01 0 1 0 4.02 0 a2.01 2.01 0 1 0 -4.02 0zM41.55 378.51L40.42 378.51L40.42 384.43L41.55 384.43zM38.97 384.43 a2.01 2.01 0 1 0 4.02 0 a2.01 2.01 0 1 0 -4.02 0zM33.23 377.08L32.19 376.65L30.86 379.85L31.91 380.29zM29.37 380.07 a2.01 2.01 0 1 0 4.02 0 a2.01 2.01 0 1 0 -4.02 0zM26.1 372.58L25.3 371.78L19.74 377.33L20.55 378.13zM18.13 377.73 a2.01 2.01 0 1 0 4.02 0 a2.01 2.01 0 1 0 -4.02 0zM21.22 365.69L20.79 364.64L13.96 367.47L14.4 368.51zM12.17 367.99 a2.01 2.01 0 1 0 4.02 0 a2.01 2.01 0 1 0 -4.02 0zM19.36 357.45L19.36 356.32L15.35 356.32L15.35 357.45zM13.34 356.89 a2.01 2.01 0 1 0 4.02 0 a2.01 2.01 0 1 0 -4.02 0zM20.79 349.14L21.22 348.09L15.49 345.71L15.05 346.76zM13.26 346.24 a2.01 2.01 0 1 0 4.02 0 a2.01 2.01 0 1 0 -4.02 0zM25.3 342L26.1 341.2L18.98 334.09L18.18 334.89zM16.57 334.49 a2.01 2.01 0 1 0 4.02 0 a2.01 2.01 0 1 0 -4.02 0zM32.19 337.13L33.23 336.7L32.17 334.14L31.13 334.57zM29.64 334.35 a2.01 2.01 0 1 0 4.02 0 a2.01 2.01 0 1 0 -4.02 0zM40.42 335.27L41.55 335.27L41.55 330.36L40.42 330.36zM38.97 330.36 a2.01 2.01 0 1 0 4.02 0 a2.01 2.01 0 1 0 -4.02 0zM48.74 336.7L49.78 337.13L51.97 331.84L50.93 331.41zM49.44 331.63 a2.01 2.01 0 1 0 4.02 0 a2.01 2.01 0 1 0 -4.02 0zM55.87 341.2L56.67 342L61.51 337.16L60.71 336.36zM59.1 336.76 a2.01 2.01 0 1 0 4.02 0 a2.01 2.01 0 1 0 -4.02 0zM60.74 348.09L61.18 349.14L67.73 346.42L67.3 345.38zM65.5 345.9 a2.01 2.01 0 1 0 4.02 0 a2.01 2.01 0 1 0 -4.02 0zM19.35 356.89 a21.63 21.63 0 1 0 43.26 0 a21.63 21.63 0 1 0 -43.26 0z" fill="rgba(34, 149, 118, 0.76)"></path><path d="M51.46 375.81 A20.63 20.63 0 0 1 19.36 356.54M19.36 356.54 A43.26 43.26 0 0 0 51.46 375.81" fill="rgba(27, 119, 94, 0.76)" fill-rule="nonzero"></path><path d="M42.52 349.8 a4.33 4.33 0 1 0 8.66 0 a4.33 4.33 0 1 0 -8.66 0zM23.17 358.24 a4.33 4.33 0 1 0 8.66 0 a4.33 4.33 0 1 0 -8.66 0zM48.31 375.43 a1.08 1.08 0 1 0 2.16 0 a1.08 1.08 0 1 0 -2.16 0zM26.66 371.97 a1.95 1.95 0 1 0 3.9 0 a1.95 1.95 0 1 0 -3.9 0zM32.39 350.1 a1.51 1.51 0 1 0 3.02 0 a1.51 1.51 0 1 0 -3.02 0zM47.7 367.27 a2.81 2.81 0 1 0 5.62 0 a2.81 2.81 0 1 0 -5.62 0zM36.29 367.65 a3.46 3.46 0 1 0 6.92 0 a3.46 3.46 0 1 0 -6.92 0zM51.33 341.65 a1.08 1.08 0 1 0 2.16 0 a1.08 1.08 0 1 0 -2.16 0zM58.31 359.8 a1.95 1.95 0 1 0 3.9 0 a1.95 1.95 0 1 0 -3.9 0zM29.81 341.04 a3.24 3.24 0 1 0 6.48 0 a3.24 3.24 0 1 0 -6.48 0z" fill="rgba(27, 119, 94, 0.76)" fill-rule="nonzero"></path></g><defs><mask id="SvgjsMask1074"><rect width="700" height="700" fill="#ffffff"></rect></mask></defs></svg>
